<svg xmlns="http://www.w3.org/2000/svg" xmlns:xlink="http://www.w3.org/1999/xlink" version="1.1" baseProfile="tiny" x="0px" y="0px" viewBox="0 0 100 125" xml:space="preserve"><path d="M80.182,45.176v-0.092v-0.097v-0.185l-0.094-0.272l-0.082-0.268l-0.107-0.189v-0.092v-0.095L79.816,43.7l-0.092-0.189  l-0.096-0.083v-0.092l-0.094-0.175l-0.094-0.106l-0.457-0.457l-0.08-0.083l-0.189-0.189l0.27-0.266l-0.189-0.108l-0.08-0.081  l-0.092-0.095l-0.176-0.094h-0.109l-0.172-0.187l-0.551-0.365H77.52l-0.281-0.268h-0.176l-0.094-0.094h-0.188l-0.176-0.187  l-0.361-0.189l-0.283-0.079l-0.094-0.097H75.68l-0.08-0.092l-0.377-0.081h-0.189l-0.176-0.108h-0.092h-0.08h-0.188L74.4,39.854  l-0.359-0.095l-0.283-0.092l-0.176-0.097h-0.105l-0.352-0.092L72.938,39.4l-0.375-0.111l-0.363-0.078h-0.094h-0.08l-0.189-0.095  l-0.457-0.095h-0.188h-0.189h-0.186h-0.176l-0.094-0.081L69.9,38.835h-0.268h-0.096l-0.174-0.081h-0.107l0.107-0.097v-0.092  l0.08-0.079l0.283-0.189v-0.095l0.094-0.095l0.08-0.094h0.107l0.082-0.092h0.094l0.092-0.081l0.084-0.108l0.105-0.081l0.082-0.092  l0.094-0.097l0.176-0.079l0.105-0.111h0.08l0.189-0.078l0.188-0.095l0.082-0.095l0.107-0.092l0.08-0.095l0.188-0.081l0.08-0.108  h0.109l0.174-0.081l0.094-0.092h0.08l0.471-0.365l0.176-0.094l0.105-0.095h0.08l0.189-0.187l0.082-0.173l0.186-0.095l0.096-0.095  h0.094l0.189-0.175h0.078l0.109-0.106h0.08l0.549-0.457l0.098-0.081l0.189-0.094h0.078l0.457-0.457l0.107-0.189l0.08-0.092  l0.094-0.081l0.174-0.189l0.189-0.27l0.096-0.106l0.092-0.083l0.189-0.185l0.08-0.189l0.105-0.081V32.41h0.082l0.189-0.268  l0.186-0.268l0.082-0.097l0.094-0.185l0.096-0.178l0.186-0.187v-0.095V31.04l0.176-0.268V30.68l0.094-0.097l0.096-0.187l0.092-0.081  l0.189-0.189v-0.095l0.08-0.095l0.188-0.268l0.27-0.092l0.096-0.175l0.092-0.189l0.082-0.268l0.107-0.189l0.08-0.187l0.094-0.189  v-0.081v-0.108V28.11l0.094-0.189l0.096-0.549v-0.095v-0.173v-0.097l0.092-0.268v-0.106v-0.27v-0.187v-0.081v-0.095l0.082-0.189  v-0.457v-0.282v-0.175v-0.281l-0.082-0.538l-0.092-0.108l-0.096-0.268l-0.094-0.083v-0.106v-0.079l-0.094-0.189v-0.092l-0.27-0.459  l-0.188-0.173l-0.08-0.111l-0.109-0.078l-0.172-0.092l-0.096-0.097l-0.189-0.081h-0.172l-0.096-0.108l-0.188-0.081h-0.082h-0.105  h-0.08l-0.189-0.094l-0.268-0.092h-0.096h-0.094l-0.188-0.095l-0.361-0.095h-0.096l-0.363-0.078H75.6h-0.188h-0.379l-0.348,0.078  h-0.109h-0.268l-0.365,0.095l-0.281,0.095l-0.361,0.092h-0.096H73.02h-0.363h-0.174l-0.283,0.094h-0.094l-0.361,0.081l-0.365,0.108  h-0.092l-0.189,0.081h-0.281h-0.084h-0.186l-0.363,0.189l-0.094,0.078H69.9l-0.174,0.111l-0.471,0.173l-0.08,0.095h-0.094  l-0.283,0.092l-0.08,0.095h-0.189l-0.186,0.081l-0.271,0.097H67.98l-0.176,0.092l-0.281,0.092l-0.094,0.097H67.24h-0.08  l-0.281,0.079l-0.096,0.106l-0.268,0.083l-0.094,0.095h-0.096l-0.268,0.092l-0.189,0.081h-0.188h-0.188h-0.176h-0.172h-0.189h-0.189  H64.58H64.5h-0.096h-0.094l-0.094-0.081h-0.094h-0.08l-0.107-0.092l-0.176-0.178h-0.092l-0.189-0.185h-0.082v-0.189v-0.092  l-0.092-0.097v-0.362l-0.094-0.173v-0.111l-0.082-0.348l0.082-0.376v-0.189l0.094-0.36l0.092-0.364V20.68v-0.095v-0.189v-0.079  l0.082-0.092v-0.189l0.107-0.095v-0.081l0.082-0.108v-0.081V19.58v-0.097l0.092-0.078l0.094-0.189l0.082-0.187l0.107-0.094  l0.08-0.175V18.65l0.094-0.081l0.094-0.268v-0.187l0.189-0.189l0.08-0.27l0.107-0.092v-0.189l0.08-0.092l0.094-0.083l0.096-0.281  v-0.095l0.08-0.081l0.109-0.106v-0.078l0.078-0.097l0.094-0.187v-0.094l0.096-0.175v-0.092l0.08-0.097l0.107-0.092l0.08-0.189  l0.094-0.173l0.094-0.178l0.096-0.106l0.094-0.268l0.078-0.27l0.109-0.187v-0.095v-0.094v-0.079v-0.111l0.08-0.078l0.096-0.282  l0.094-0.178l0.078-0.187v-0.095l0.109-0.173l0.08-0.189V12.7l0.096-0.097l0.094-0.268v-0.095v-0.095v-0.092l0.092-0.175  l0.096-0.376l0.08-0.187l0.189-0.538l0.094-0.095v-0.095v-0.094l0.094-0.282v-0.175V9.863V9.676l0.08-0.189l0.107-0.376V9.032V8.936  l0.176-0.551V8.303l0.092-0.374V7.741V7.551V7.376L67.98,6.921l-0.094-0.189V6.557L67.805,6.37l-0.107-0.097V6.181L67.43,5.914  V5.819V5.724l-0.08-0.083L67.24,5.538l-0.08-0.081L66.973,5.36l-0.27-0.185l-0.188-0.097L66.326,5l-1.639,0.36H64.58H64.5h-0.283  h-0.174h-0.189h-0.268h-0.189h-0.268l-0.281,0.097h-0.094h-0.189l-0.188,0.081l-0.27,0.104h-0.08l-0.281,0.083h-0.189l-0.176,0.095  L61.1,5.914h-0.092h-0.084l-0.188,0.079l-0.551,0.189L59.904,6.37l-0.189,0.092l-0.348,0.175l-0.109,0.095h-0.08l-0.375,0.189  l-0.268,0.173l-0.379,0.281l-0.268,0.095l-0.189,0.187l-0.174,0.083L57.242,7.93l-0.268,0.189l-0.379,0.185l-0.078,0.081h-0.094  l-0.281,0.27l-0.27,0.189l-0.096,0.092h-0.092l-0.27,0.281l-0.268,0.175l-0.189,0.189l-0.096,0.094l-0.361,0.362l-0.281,0.282  l-0.363,0.27l-0.375,0.27l-0.08,0.185l-0.189,0.097l-0.188,0.281l-0.189,0.081L52.66,11.69h-0.092l-0.27,0.268l-0.188,0.189  l-0.189,0.189l-0.27,0.187l-0.094,0.081h-0.092l-0.189,0.189l-0.176,0.189l-0.175,0.173L50.82,13.25h-0.08l-0.187,0.187  l-0.095,0.081l-0.175,0.189l-0.187,0.189l-0.095,0.078l-0.094,0.111l-0.187,0.173l-0.081,0.095l-0.095,0.079H49.45l-0.268,0.189  l-0.095,0.092l-0.094,0.097l-0.095,0.189l-0.457,0.362l-0.095,0.094l-0.079,0.079l-0.108,0.108l-0.081,0.081l-0.095,0.092  l-0.095,0.097l-0.189,0.081h-0.079l-0.189,0.281h-0.092h-0.097l-0.187,0.187h-0.081l-0.189,0.175l-0.457,0.376l-0.187,0.081  l-0.081,0.106l-0.106,0.083l-0.175,0.092v0.097l-0.094,0.092h-0.081H45.5h-0.083H45.23h-0.095h-0.092h-0.081v-0.092l-0.189-0.097  v-0.092l-0.095-0.083v-0.106l-0.092-0.081l-0.081-0.094l-0.108-0.282l-0.175-0.175v-0.092v-0.095l-0.092-0.281l-0.083-0.081v-0.097  l-0.106-0.173v-0.187L43.86,15.36l-0.095-0.095l-0.092-0.189l-0.097-0.078l-0.092-0.097v-0.092l-0.081-0.097l-0.108-0.092v-0.081  h-0.078v-0.108l-0.189-0.173l-0.081-0.094v-0.079l-0.189-0.286l-0.095-0.092v-0.092l-0.092-0.097l-0.083-0.081v-0.092l-0.187-0.284  v-0.078l-0.095-0.189L42.114,12.7v-0.097l-0.094-0.081l-0.095-0.187l-0.081-0.095l-0.108-0.284l-0.081-0.187l-0.092-0.081  l-0.094-0.187v-0.081l-0.27-0.378l-0.092-0.092l-0.095-0.092l-0.27-0.364L40.635,10.4l-0.081-0.081l-0.376-0.457l-0.175-0.187  h-0.095l-0.187-0.094l-0.27-0.284l-0.187-0.081l-0.189-0.185l-0.173-0.097l-0.097-0.092L38.728,8.76V8.654h-0.108l-0.27-0.176  l-0.268-0.094l-0.106-0.081L37.8,8.197l-0.095-0.079l-0.081-0.097L37.517,7.93h-0.173l-0.175-0.095l-0.281-0.177h-0.095h-0.095  l-0.094-0.106l-0.457-0.081h-0.187h-0.175h-0.362h-0.187h-0.189L34.4,7.658h-0.079l-0.189,0.083l-0.189,0.094h-0.081h-0.108h-0.079  l-0.27,0.187l-0.187,0.097l-0.097,0.079L33.03,8.303v0.081h-0.081L32.84,8.479L32.76,8.573L32.667,8.76v0.083l-0.095,0.092  l-0.095,0.175l-0.094,0.281l-0.081,0.189l-0.106,0.281l-0.081,0.175l-0.095,0.282V10.4v0.095l-0.095,0.189l-0.081,0.36v0.097  l-0.106,0.175l-0.081,0.281l-0.094,0.457v0.282v0.268V12.7v0.455v0.189v0.27v0.282v0.362v0.282v0.27v0.268v0.189v0.268v0.108  l0.094,0.455v0.083l0.081,0.281v0.097l0.106,0.265l0.081,0.27v0.106v0.175l0.095,0.281l0.095,0.27l0.081,0.095v0.175l0.106,0.281  l0.081,0.173l0.094,0.189l0.095,0.189l0.187,0.376l0.081,0.175l0.108,0.173l0.081,0.189l0.092,0.189l0.176,0.265l0.189,0.378  l0.189,0.364l0.187,0.282l0.081,0.078v0.095l0.189,0.281l0.189,0.189l0.079,0.178l0.189,0.281l0.092,0.079v0.094l0.175,0.173h0.108  l0.081,0.108l0.092,0.081l0.097,0.097v0.092l0.092,0.189l0.095,0.185l0.081,0.083v0.095l0.106,0.173l-0.106,0.189v0.092  l-0.081-0.092l-0.187-0.081h-0.097l-0.173-0.108l-0.376-0.081h-0.081l-0.284-0.092h-0.187h-0.175l-0.376-0.095l-0.189-0.083H33.03  h-0.081H32.84h-0.173h-0.095l-0.27-0.106h-0.281h-0.095H31.74h-0.175h-0.187h-0.175h-0.189h-0.187h-0.27h-0.092h-0.175l-0.378,0.106  l-0.187,0.083h-0.081h-0.106h-0.175h-0.175h-0.189h-0.092l-0.284,0.095l-0.173,0.092l-0.095,0.081h-0.095l-0.175,0.108l-0.281,0.081  l-0.095,0.092L27.44,24.35l-0.095,0.092l-0.187,0.092l-0.284,0.083l-0.173,0.094l-0.094,0.095l-0.081,0.092h-0.108l-0.081,0.095  l-0.092,0.081H26.15l-0.081,0.108l-0.108,0.081H25.88h-0.187l-0.189,0.185h-0.081v0.083h-0.108l-0.079,0.106v0.083l-0.189,0.457  l-0.189,0.374v0.083v0.106v0.083v0.092v0.092v0.083v0.106v0.081v0.095l0.108,0.281v0.083l0.081,0.455l0.095,0.189v0.095l0.094,0.549  l0.079,0.092v0.178v0.376l0.108,0.268v0.095l0.081,0.187l0.095,0.178l0.095,0.106v0.178v0.092v0.078l0.092,0.189l0.175,0.457  l0.108,0.097v0.092v0.092v0.097l0.081,0.268l0.095,0.187l0.092,0.189l0.081,0.173l0.108,0.097l0.081,0.185l0.094,0.189l0.092,0.175  l0.189,0.175l0.081,0.108v0.081l0.187,0.185v0.097l0.094,0.092v0.083l0.176,0.282l0.106,0.281l0.081,0.081v0.095l0.189,0.281  l0.081,0.083v0.092l0.106,0.095l0.081,0.187l0.094,0.081v0.108l0.189,0.173l0.092,0.094h-0.092h-0.095h-0.095l-0.175-0.094h-0.281  l-0.362-0.095l-0.095-0.079h-0.281h-0.189l-0.173-0.108l-0.175-0.081l-0.457-0.092H25.88h-0.094h-0.092l-0.27-0.095h-0.281h-0.175  H24.78h-0.189h-0.189H24.04h-0.173l-0.378,0.095l-0.187,0.092l-0.081,0.081h-0.189l-0.268,0.108h-0.108h-0.081h-0.092l-0.175,0.079  h-0.108h-0.081l-0.376,0.272h-0.081l-0.187,0.106l-0.459,0.348l-0.092,0.108l-0.095,0.081v0.095L20.642,37.1v0.095h-0.083  l-0.092,0.189l-0.189,0.268v0.081l-0.092,0.108l-0.083,0.081v0.187l-0.106,0.095l-0.081,0.27v0.092v0.189l-0.095,0.187v0.081  l-0.094,0.457v0.189v0.268l0.094,0.282l0.095,0.175v0.189v0.092l0.081,0.284l0.106,0.27v0.092l0.083,0.362v0.094l0.092,0.365v0.092  v0.092l0.189,0.272l0.092,0.282l0.083,0.281l0.106,0.351l0.081,0.106l0.095,0.175l0.175,0.282l0.106,0.268l0.081,0.097v0.092  l0.189,0.365l0.187,0.362l0.189,0.281l0.268,0.281l0.189,0.27l0.175,0.362l0.092,0.095v0.094l0.27,0.362l0.281,0.374l0.175,0.272  l0.106,0.094v0.095l0.27,0.36l0.268,0.365l0.094,0.094v0.095l0.362,0.36l0.281,0.365l0.365,0.378l0.095,0.079l0.281,0.281  l0.27,0.284l0.268,0.362l0.108,0.092l0.081,0.083l0.268,0.282l0.284,0.283l0.092,0.081l0.081,0.093l0.376,0.281l0.376,0.27  l0.27,0.187l0.081,0.079h-0.175h-0.175H27.44h-0.095l-0.281,0.11l-0.081,0.078h-0.189h-0.092h-0.284l-0.173,0.098l-0.284,0.092  l-0.268,0.083h-0.095h-0.175l-0.281,0.106l-0.175,0.081l-0.187,0.094h-0.097l-0.281,0.189l-0.268,0.093l-0.095,0.078h-0.094  l-0.362,0.283l-0.175,0.095l-0.106,0.083l-0.175,0.104l-0.281,0.178l-0.081,0.092l-0.108,0.093l-0.173,0.27l-0.094,0.095  l-0.189,0.188l-0.081,0.079l-0.092,0.108l-0.175,0.27l-0.189,0.268l-0.187,0.189v0.095l-0.095,0.173l-0.095,0.189l-0.187,0.188  l-0.083,0.268l-0.187,0.268v0.108l-0.081,0.081l-0.106,0.187l-0.083,0.095l-0.092,0.281l-0.095,0.272v0.266v0.283v0.365v0.265  l0.095,0.379l0.092,0.27v0.093l0.083,0.361l0.106,0.46v0.105l0.081,0.268l0.095,0.364l0.092,0.36l0.083,0.189l0.106,0.271  l0.27,0.374l0.187,0.378l0.189,0.455l0.081,0.081v0.097l0.268,0.359l0.376,0.457l0.362,0.457l0.095,0.105l0.094,0.083l0.362,0.376  l0.457,0.362l0.457,0.365l0.565,0.456h0.081l0.095,0.093l0.457,0.281l0.471,0.364h0.175l0.092,0.093l0.457,0.188l0.457,0.271h0.094  l0.552,0.27l0.724,0.281l0.565,0.173l0.632,0.189l0.551,0.189h0.27h0.106l0.538,0.081l0.457,0.185h0.106l0.632,0.188h0.095  l0.646,0.093h0.079l0.646,0.097l0.646,0.081h0.549h0.097h0.092h0.095v0.293l0.081,0.473v0.175v0.376v0.079l0.106,0.378v0.079v0.108  v0.361l0.081,0.365v0.094l0.095,0.282v0.27v0.093l0.094,0.27v0.187l0.081,0.364l0.106,0.374l0.081,0.272l0.095,0.268l0.095,0.374  l0.081,0.364l0.106,0.362v0.376v0.083l0.081,0.454v0.284v0.281v0.364v0.362v0.266l-0.081,0.286v0.185v0.283v0.271v0.078v0.189  l-0.106,0.188l-0.081,0.364v0.093v0.092v0.098l-0.095,0.362l-0.095,0.361v0.282v0.092v0.083v0.106v0.083l-0.081,0.376l-0.106,0.266  l-0.081,0.188l-0.094,0.272l-0.095,0.187l-0.081,0.081v0.187l-0.187,0.188l-0.187,0.271l-0.189,0.282v0.092l-0.081,0.081  l-0.108,0.188l-0.078,0.188v0.083l-0.097,0.106l-0.173,0.268l-0.187,0.364v0.095l-0.097,0.27l-0.187,0.185l-0.175,0.378  l-0.187,0.268l-0.189,0.189v0.078l-0.081,0.189l-0.187,0.271l-0.189,0.283l-0.189,0.171l-0.268,0.283v0.095l-0.095,0.093  l-0.281,0.364l-0.081,0.268l-0.189,0.281l-0.187,0.176l-0.175,0.188l-0.187,0.189l-0.175,0.189l-0.108,0.078l-0.081,0.189  l-0.092,0.092l-0.175,0.284v0.081l-0.189,0.188h-0.092l-0.095,0.093l-0.459,0.551l-0.092,0.081l-0.175,0.106l-0.189,0.268  l-0.092,0.188v0.083l-0.095,0.188l-0.081,0.551l0.175,0.738v0.081l0.092,0.095v0.092h0.083l0.106,0.095h0.081l0.187,0.178L30.64,95  h0.106h0.081l0.551-0.078l0.092-0.106h0.095l0.094-0.083l0.187-0.095v-0.095l0.175-0.092l0.175-0.176l0.106-0.092l0.081-0.097  l0.284-0.268l0.173-0.282l0.108-0.097l0.27-0.359l0.079-0.095v-0.095l0.378-0.914l0.187-0.187v-0.095l0.081-0.083l0.095-0.092  l0.095-0.093l0.268-0.27h0.108l0.27-0.284l0.268-0.359v-0.097l0.092-0.093l0.189-0.27l0.175-0.189l0.187-0.266h0.095l0.281-0.286  v-0.092l0.081-0.081l0.27-0.376l0.106-0.188l0.081-0.189v-0.078l0.094-0.093l0.189-0.364l0.173-0.379l0.189-0.268v-0.092  l0.094-0.095l0.173-0.27l0.189-0.268l0.095-0.284l0.175-0.281l0.106-0.189l0.081-0.173l0.095-0.281l0.092-0.178l0.097-0.187  l0.092-0.095l0.081-0.266l0.187-0.272l0.097-0.188l0.092-0.188v-0.08v-0.106l0.081-0.268v-0.095v-0.095l0.108-0.271l0.081-0.266  l0.094-0.281l0.092-0.367V81.98v-0.189l0.095-0.281v-0.081l0.095-0.27l0.081-0.185l0.108-0.554v-0.093v-0.095l0.079-0.283v-0.078  v-0.377l0.095-0.27v-0.268v-0.281l0.094-0.284V78.22v-0.364v-0.376v-0.362V76.66v-0.283l-0.094-0.362l-0.095-0.364v-0.374v-0.081  l-0.079-0.459l-0.108-0.454l-0.081-0.376l-0.095-0.364v-0.093l-0.095-0.378v-0.079l-0.092-0.188v-0.083v-0.282l-0.094-0.361  L39.184,71.7v-0.078v-0.189l-0.108-0.281v-0.014h0.108h0.081h0.094h0.092l0.646,0.081h0.081h0.106h0.083l0.268,0.095h0.106h0.081  h0.189h0.095h0.173h0.108h0.081h0.094h0.362h0.095h0.094h0.187h0.187h0.083h0.092h0.175h0.108h0.081h0.092h0.097h0.078h0.282h0.097  h0.092h0.095l0.819-0.176l0.095-0.108h0.081h0.108h0.081l0.374-0.081l0.083-0.094h0.106h0.175l0.282-0.095h0.175h0.092h0.094h0.176  h0.187h0.097l0.281-0.079l0.175-0.11l0.092-0.078h0.081h0.108h0.079h0.097h0.187h0.095h0.081l0.108-0.093h0.079h0.189l0.081-0.095  h0.108h0.078l0.189-0.08l0.189-0.108h0.268h0.189l0.268-0.081h0.094h0.282h0.27h0.092h0.175l0.282-0.097h0.094h0.188h0.176  l0.363-0.093h0.094h0.189h0.174h0.189h0.188h0.188h0.082h0.188h0.457h0.188h0.082l1.209-0.188h0.172h0.096h0.189l0.172,0.097  l0.365,0.092l0.186,0.093h0.096h0.094h0.268l0.27,0.097l0.188,0.081h0.098l0.186,0.108h0.096l0.457,0.08l0.186,0.095h0.082h0.094  l0.176,0.093h0.105l0.27,0.078h0.094l0.283,0.189h0.08l0.268,0.095h0.281l0.096,0.094l0.27,0.081l0.105,0.108l0.541,0.081H61.1  h0.176h0.105h0.084l0.092,0.095l0.189,0.092h0.092L61.92,71.5l0.283,0.095h0.361l0.283,0.078l0.457,0.111l0.738,0.078h0.08h0.094  H64.5h0.188h0.174h0.176h0.188h0.27h0.188h0.283h0.172h0.285h0.281h0.27h0.092l0.633-0.078h0.107l0.82-0.189l0.738-0.189  l0.174-0.092h0.096l0.188-0.095h0.08l0.283-0.081l0.176-0.108l0.105-0.081h0.176l0.176-0.094l0.105-0.095h0.08h0.096h0.094  l0.457-0.268l0.268-0.093l0.189-0.095l0.188-0.08h0.189l0.174-0.108l0.094-0.081l0.094-0.097l0.094-0.093l0.082-0.092l0.375-0.281  l0.188-0.081l0.176-0.095h0.094l0.189-0.095l0.188-0.189l0.08-0.08L74.4,68.84l0.176-0.188l0.109-0.093l0.08-0.083l0.189-0.187  l0.078-0.095l0.189-0.176l0.094-0.105l0.096-0.083l0.092-0.185v-0.083l0.176-0.282l0.107-0.188l0.174-0.173l0.096-0.108l0.188-0.268  l0.268-0.646l0.094-0.268l0.176-0.189l0.281-0.646l0.096-0.268l0.268-0.646V63.8l0.189-0.644l0.186-0.835v-0.079l0.082-0.742v-0.093  l0.094-0.268l0.094-0.457v-0.378V60.12v-0.364v-0.364v-0.374l-0.094-0.364v-0.095v-0.187v-0.268v-0.084v-0.187l-0.094-0.283  l-0.082-0.282v-0.173l-0.105-0.178l-0.08-0.185l-0.096-0.188l-0.094-0.268l-0.082-0.189l-0.105-0.095v-0.095l-0.08-0.078  l-0.096-0.286l-0.457-0.644l-0.281-0.173l-0.189-0.189l-0.174-0.189l-0.281-0.268l-0.268-0.188l-0.096-0.189l-0.283-0.171  l-0.268-0.189l-0.268-0.175l-0.189-0.106l-0.189-0.083l-0.268-0.092l-0.189-0.098l-0.186-0.078h0.186l0.096-0.11l0.283-0.079  l0.078-0.092l0.379-0.095l0.188-0.095l0.08-0.095l0.189-0.08h0.078l0.189-0.093l0.189-0.097h0.092H75.6l0.188-0.092l0.08-0.093  h0.189l0.188-0.27h0.08l0.281-0.189l0.176-0.08l0.105-0.107l0.176-0.083l0.096-0.092l0.186-0.092l0.082-0.097l0.551-0.362  l0.094-0.095l0.188-0.175l0.27-0.374l0.457-0.365l0.27-0.189V49.02l0.107-0.079v-0.11v-0.079l0.268-0.459v-0.095v-0.092l0.096-0.189  l0.092-0.268l0.082-0.189l0.107-0.268v-0.097l0.176-0.736v-0.081l0.092-0.378V45.82v-0.187v-0.095v-0.095L80.182,45.176z   M76.42,45.716v0.104v0.27v0.189v0.081l-0.096,0.187l-0.08,0.189l-0.109,0.268l-0.078,0.189v0.081l-0.096,0.104l-0.174,0.178  l-0.107,0.189l-0.08,0.095l-0.188,0.079l-0.096,0.092l-0.361,0.284l-0.098,0.081h-0.092l-0.08,0.106h-0.109l-0.268,0.177  l-0.189,0.095l-0.176,0.189l-0.186,0.079h-0.176h-0.105h-0.082l-0.375,0.187l-0.27,0.094l-0.094,0.095h-0.094l-0.08,0.081h-0.109  h-0.08h-0.094h-0.094h-0.08l-0.564,0.189l-0.363,0.092h-0.096h-0.08h-0.105l-0.633,0.097l-0.094,0.079H69.9h-0.08l-0.377,0.106  h-0.08h-0.188l-0.27,0.081h-0.188h-0.189h-0.092h-0.094h-0.082h-0.107h-0.082H67.98l-0.74,0.189h-0.08h-0.096l-0.361,0.27  l-0.281,0.189l-0.285,0.375l-0.078,0.175l-0.189,0.738l0.189,0.724l0.078,0.189l0.285,0.364l0.281,0.189l0.27,0.171l0.188,0.189  l0.08,0.094l0.283,0.178l0.094,0.104h0.08l0.107,0.08h0.176l0.363,0.282l0.094,0.097l0.549,0.268h0.096h0.094l0.188,0.095  l0.174,0.094l0.189,0.079l0.174,0.108l0.107,0.081l0.176,0.092l0.549,0.364h0.189l0.08,0.095l0.285,0.095h0.092l0.189,0.189  l0.348,0.187h0.109l0.08,0.081l0.188,0.092l0.27,0.178h0.094l0.094,0.104l0.094,0.083l0.176,0.268h0.105v0.108l0.176,0.174  l0.094,0.188l0.188,0.176l0.08,0.281l0.096,0.176v0.105l0.094,0.081v0.189v0.094v0.268v0.098v0.185l0.092,0.27v0.189v0.187v0.364  v0.173v0.108l-0.092,0.271l-0.094,0.454V61.5v0.097l-0.096,0.364l-0.08,0.281l-0.105,0.079v0.095l-0.176,0.551v0.189l-0.176,0.188  l-0.105,0.347L72.938,63.8l-0.188,0.27l-0.188,0.268v0.095l-0.08,0.281l-0.377,0.538v0.105l-0.189,0.178l-0.08,0.095l-0.092,0.093  l-0.096,0.175l-0.08,0.093l-0.107,0.097l-0.082,0.092l-1.289-0.738l-0.082,0.095L69.9,65.629l-0.08,0.093l-0.377,0.175h-0.08h-0.107  h-0.08l-0.27,0.189h-0.188l-0.094,0.092h-0.096l-0.186,0.093l-0.189,0.083L67.98,66.46l-0.094,0.083h-0.082h-0.107l-0.268,0.092  h-0.08l-0.646,0.189h-0.109l-0.348,0.095h-0.109l-0.723,0.173h-0.189h-0.078h-0.285h-0.174h-0.283h-0.188h-0.281H63.76h-0.174  h-0.189h-0.092l-0.74-0.093h-0.188h-0.08l-0.189-0.08H61.92h-0.174l-0.189-0.095h-0.176l-0.188-0.093H61.1l-0.176-0.097  l-0.188-0.092h-0.094l-0.094-0.083l-0.457-0.106l-0.096-0.083l-0.457-0.093l-0.281-0.173l-0.174-0.108H58.99h-0.094h-0.094h-0.082  h-0.105l-0.176-0.081l-0.176-0.094l-0.457-0.093l-0.186-0.095h-0.096l-0.186-0.095h-0.098l-0.188-0.083l-0.08-0.105l-0.268-0.079  l-0.457-0.097l-0.189-0.092h-0.188l-0.188-0.081h-0.189l-0.176-0.108h-0.281h-0.08l-0.645-0.081h-0.094h-0.096l-0.455-0.092h-0.082  h-0.186h-0.189h-0.457h-0.188h-0.082h-0.188h-0.188h-0.189h-0.188h-0.176h-0.092h-0.189l-0.351,0.092H50.82h-0.175h-0.092  l-0.27,0.081h-0.187l-0.646,0.108h-0.081h-0.108l-0.457,0.081h-0.187h-0.081l-0.738,0.188h-0.097l-0.187,0.079l-0.081,0.105h-0.092  h-0.097l-0.187,0.083l-0.081,0.095h-0.189h-0.187l-0.081,0.095h-0.095l-0.094,0.093h-0.187l-0.187,0.094l-0.27,0.081h-0.081H45.5  l-0.083,0.108l-0.187,0.081h-0.095h-0.173h-0.108h-0.081l-0.095,0.092h-0.092h-0.189l-0.268,0.093l-0.189,0.083l-0.646,0.106h-0.078  h-0.27h-0.108h-0.081h-0.095h-0.175h-0.106h-0.081h-0.095H42.02h-0.095h-0.081h-0.108h-0.349h-0.108h-0.081h-0.092h-0.189h-0.094  h-0.187h-0.081l-0.833-0.189h-0.081h-0.095h-0.095h-0.092h-0.094h-0.081h-0.051l0.023-0.093l0.081-0.362v-0.094v-0.365v-0.105  v-0.079l0.108-0.27l0.079-0.376l0.097-0.378l0.092-0.268l0.268-0.536v-0.11l0.097-0.268l0.187-0.27v-0.104l0.095-0.083l0.189-0.549  l0.173-0.364l0.284-0.563v-0.081l0.078-0.095l0.189-0.457l0.189-0.364l0.268-0.457v-0.108l0.095-0.08l0.175-0.55l0.738-0.549  l0.187-0.459l0.281-0.565l0.27-0.454v-0.081v-0.097l0.187-0.359l0.27-0.284l0.085-0.254l0.076,0.025l0.268,0.095h0.095h0.094  l0.27,0.095l0.281,0.078h0.362h0.095l0.364,0.111h0.187h0.27h0.187h0.187l0.365-0.111l0.281-0.078l0.27-0.095l0.374-0.095  l0.083-0.092l0.268-0.097l0.187-0.081l0.284-0.095l0.173-0.093l0.284-0.097l0.284-0.092l0.173-0.079l0.284-0.11l0.187-0.078  l0.173-0.095l0.284-0.093l0.175-0.083l0.095-0.105h0.078h0.109l0.176-0.081h0.094l0.188-0.097l0.08-0.093h0.189l0.092-0.092h0.176  l0.189-0.097l0.281-0.185l0.094-0.083l0.082-0.093l0.105-0.095v-0.08l0.08-0.108l0.096-0.455v-0.083V52.74l-0.096-0.471l-0.08-0.08  v-0.093l-0.105-0.092l-0.082-0.083l-0.457-0.281h-0.107h-0.176L51.6,51.546l-0.537,0.095h-0.187l-0.095,0.092h-0.095h-0.081h-0.108  l-0.079,0.083l-0.097,0.106h-0.092h-0.081l-0.187,0.083l-0.284,0.185l-0.284,0.08h-0.079l-0.27,0.108l-0.281,0.081l-0.189,0.095  h-0.095h-0.079l-0.284,0.092l-0.175,0.095l-0.281,0.095H47.57h-0.081l-0.108,0.083h-0.175l-0.281,0.106h-0.081l-0.189,0.078h-0.092  H46.28h-0.175H45.93l-0.189-0.078h-0.092h-0.168l0.289-0.434l0.27-0.535l0.268-0.563l0.376-0.632l0.268-0.551l0.27-0.551  l0.376-0.551l0.081-0.187l0.108-0.189l0.079-0.351l0.284-0.471v-0.092l0.095-0.079l0.189-0.461l0.268-0.563v-0.173l0.079-0.094  l0.11-0.376l0.268-0.454l0.268-0.54v-0.092l0.189-0.471l0.189-0.351v-0.108v-0.081l0.187-0.563v-0.272V43.16l0.081-0.376  l0.095-0.362l0.173-0.471l0.189-0.457v-0.079l0.095-0.459v-0.189v-0.266l0.095-0.189l0.092-0.27l0.095-0.108l0.081-0.364l0.108-0.36  l0.08-0.457v-0.097l0.094-0.36l0.094-0.284l0.08-0.282l0.109-0.27l0.08-0.079l0.094-0.284l0.094-0.282l0.08-0.27v-0.092v-0.092  l0.107-0.272v-0.094v-0.173v-0.189v-0.092v-0.095v-0.095v-0.092l0.082-0.083l0.092-0.281v-0.095l0.096-0.187l0.094-0.54v-0.092  l0.092-0.551v-0.095v-0.092v-0.083l-0.092-0.644l-0.363-0.459l-0.455-0.374l-1.479,0.374l-0.646,0.083L49.06,32.41l-0.095,0.108  l-0.079,0.173l-0.11,0.097v0.092l-0.079,0.092v0.083v0.106v0.083v0.092v0.284v0.173l-0.095,0.189l-0.094,0.365l-0.079,0.374  l-0.111,0.081l-0.078,0.187v0.083v0.106l-0.095,0.27v0.095l-0.095,0.281v0.079v0.189v0.189l-0.094,0.268v0.081l-0.095,0.376V37.1  v0.173l-0.079,0.189v0.097v0.092l-0.108,0.362v0.094l-0.081,0.365L47.5,38.835l-0.095,0.454V39.4l-0.078,0.268l-0.108,0.268  l-0.081,0.378l-0.094,0.079l-0.095,0.376l-0.092,0.27l-0.175,0.378l-0.187,0.455l-0.189,0.551v0.175v0.376l-0.081,0.362  l-0.187,0.457v0.095v0.095l-0.189,0.457l-0.187,0.457l-0.27,0.549v0.189l-0.095,0.083l-0.092,0.454l-0.27,0.471l-0.187,0.455  l-0.27,0.554l-0.095,0.189l-0.094,0.079l-0.081,0.376l-0.281,0.459v0.079l-0.095,0.11l-0.27,0.642l-0.281,0.457l-0.362,0.632  l-0.281,0.551L42.4,51.607l-0.058-0.062l-0.284-0.271l-0.268-0.281l-0.189-0.281l-0.268-0.351l-0.095-0.106l-0.095-0.081  l-0.268-0.187l-0.189-0.189H40.61l-0.111-0.083l-0.268-0.189l-0.189-0.185l-0.268-0.27L39.68,48.98l-0.281-0.284l-0.175-0.175  l-0.175-0.189l-0.106-0.173l-0.081-0.108l-0.095-0.081l-0.187-0.187l-0.175-0.189h-0.106l-0.175-0.175v-0.092l-0.175-0.092h-0.106  l-0.083-0.097l-0.187-0.081l-0.27-0.106l-0.374,0.187h-0.189h-0.081l-0.189,0.097h-0.081l-0.106,0.36l0.106,0.565l0.081,0.173  l0.094,0.189l0.095,0.27l0.081,0.095l0.106,0.187l0.083,0.081v0.108l0.092,0.081v0.092l0.095,0.092v0.083l0.187,0.284l0.083,0.094  v0.092l0.187,0.282l0.187,0.268l0.189,0.272l0.175,0.282l0.092,0.092l0.083,0.081l0.282,0.284l0.187,0.175l0.095,0.106l0.081,0.083  l0.282,0.185l0.175,0.27l0.281,0.281h0.095l0.362,0.362l0.284,0.271l0.268,0.283h0.094l0.095,0.093l0.212,0.149l-0.106,0.173  l-0.078,0.188l-0.108,0.08l-0.081,0.282l-0.189,0.175l-0.079,0.189l-0.108,0.188l-0.175,0.457l-0.284,0.457l-0.268,0.549  l-0.189,0.459l-0.187,0.549l-0.175,0.46l-0.281,0.454v0.095v0.095l-0.175,0.551v0.093v0.08l-0.095,0.459l-0.268,0.471v0.093v0.08  l-0.189,0.46L37.867,61.5l-0.189,0.366v0.188l-0.081,0.078l-0.092,0.284l-0.012,0.029l-0.15,0.093h-0.094h-0.081l-0.189,0.078  h-0.092l-0.095,0.097h-0.095l-0.094,0.093h-0.081v0.097l-0.187,0.173v0.108l-0.095,0.078l-0.095,0.189l-0.081,0.078l-0.187,0.189  v0.093v0.097V64v0.098l-0.094,0.268v0.094l-0.095,0.282v0.173v0.097v0.185v0.083v0.095l-0.081,0.283l-0.106,0.185l-0.081,0.351  v0.282v0.188v0.174v0.256h-0.187l-0.457-0.093l-0.646-0.08l-0.554-0.095l-0.549-0.093l-0.457-0.097l-0.551-0.281l-0.281-0.083  h-0.081l-0.646-0.093l-0.457-0.173l-0.646-0.189l-0.549-0.187l-0.632-0.272l-0.471-0.281l-0.551-0.362h-0.081l-0.106-0.092  l-0.457-0.189l-0.362-0.27l-0.457-0.281l-0.459-0.362l-0.471-0.362l-0.457-0.379l-0.268-0.268l-0.268-0.378l-0.378-0.454  l-0.187-0.271l-0.175-0.373l-0.282-0.46l-0.081-0.173v-0.188V60.12l-0.189-0.459l-0.095-0.27l-0.092-0.374l-0.081-0.27l-0.108-0.271  v-0.281v-0.176v-0.187v-0.189v-0.094l0.108-0.093l0.081-0.175l0.092-0.093v-0.095v-0.095l0.095-0.083l0.094-0.185l0.095-0.097  l0.187-0.281l0.081-0.173l0.189-0.095l0.081-0.095h0.108l0.173-0.173v-0.108l0.095-0.081l0.081-0.188l0.108-0.081l0.268-0.188  l0.092-0.094h0.097l0.187-0.095l0.175-0.095l0.094-0.095l0.187-0.078l0.27-0.097l0.092-0.093h0.175h0.108l0.348-0.092l0.565-0.098  l0.175-0.08h0.092h0.094h0.282h0.27h0.833h0.175h0.282h0.081h0.095h0.281h0.268l0.554,0.08h0.281h0.081h0.094h0.173h0.284h0.187  h0.094h0.362h0.175h0.187h0.094l0.282,0.098l0.362,0.092h0.097h0.187l0.173,0.093h0.097h0.079h0.108h0.081l0.646-0.282l0.268-0.08  l0.378-0.926l-0.378-0.913l-0.268-0.095l-0.646-0.27h-0.081l-0.108-0.093h-0.079h-0.097h-0.092l-0.189-0.097H33.03h-0.081H32.84  l-0.173-0.092l-0.189-0.093l-0.094-0.081l-0.268-0.108l-0.189-0.08h-0.081l-0.106-0.095l-0.27-0.095l-0.092-0.08h-0.095l-0.27-0.19  l-0.268-0.185l-0.189-0.097l-0.092-0.092H30.37l-0.081-0.081l-0.282-0.094l-0.189-0.189l-0.095-0.094l-0.187-0.187l-0.175-0.079  l-0.095-0.097l-0.27-0.281h-0.092l-0.095-0.081l-0.27-0.189l-0.282-0.266l-0.281-0.284l-0.175-0.284h-0.095v-0.081l-0.268-0.187  l-0.189-0.268l-0.268-0.378l-0.108-0.083v-0.104l-0.268-0.27l-0.27-0.362l-0.268-0.362l-0.284-0.281l-0.282-0.364l-0.081-0.095  v-0.095l-0.281-0.268l-0.175-0.281h-0.108l-0.268-0.365l-0.189-0.268l-0.187-0.281l-0.175-0.365l-0.281-0.378l-0.175-0.266  l-0.175-0.27l-0.187-0.282l-0.095-0.281l-0.094-0.081v-0.108l-0.095-0.175l-0.092-0.281v-0.079v-0.097l-0.189-0.362l-0.081-0.284  l-0.092-0.281l-0.094-0.175l-0.081-0.282l-0.108-0.268L22.118,39.4v-0.189v-0.095l-0.092-0.175v-0.106l0.092-0.27v-0.079  l0.081-0.111l0.108-0.078l0.081-0.095l0.187-0.189v-0.092l0.27-0.081l0.187-0.189h0.094h0.095h0.187l0.351-0.092h0.376h0.189h0.173  h0.187l0.097,0.092l0.535,0.081h0.189h0.095l0.187,0.108l0.284,0.081l0.348,0.092h0.108l0.081,0.094l0.268,0.095l0.376,0.095h0.094  h0.095h0.081l0.376,0.078l0.187,0.111h0.175h0.189l0.092,0.079l0.189,0.092l0.457,0.097h0.268h0.189h0.081l0.284,0.081l0.362,0.106  h0.187l0.364,0.081h0.092h0.081h0.189h0.095l0.362,0.095h0.106h0.081h0.376h0.081h0.094h0.095h0.095h0.092h0.081h0.108l0.914-0.362  l0.081-0.268l0.282-0.646v-0.108l-0.187-0.727l-0.175-0.092v-0.095h-0.108v-0.081l-0.079-0.092l-0.189-0.097l-0.081-0.092  l-0.108-0.092l-0.176-0.083H33.03l-0.189-0.189l-0.173-0.094h-0.095l-0.189-0.095l-0.187-0.187l-0.27-0.173h-0.081l-0.106-0.095  h-0.081h-0.094l-0.095-0.095l-0.092-0.092l-0.095-0.083l-0.081-0.106l-0.108-0.083l-0.081-0.092l-0.187-0.175l-0.187-0.106  l-0.083-0.175h-0.092l-0.095-0.092v-0.095l-0.189-0.178L30.1,33.887l-0.092-0.092v-0.092l-0.189-0.189l-0.095-0.175l-0.081-0.175  l-0.106-0.106v-0.083l-0.175-0.282l-0.095-0.173L29.08,32.33l-0.083-0.092L28.81,32.06l-0.081-0.185l-0.189-0.189l-0.092-0.189  l-0.095-0.175v-0.092l-0.095-0.189l-0.094-0.268l-0.081-0.189l-0.106-0.187v-0.081l-0.081-0.378l-0.095-0.173v-0.187v-0.094  l-0.095-0.27v-0.097v-0.17l-0.081-0.376l-0.106-0.189v-0.081v-0.108l-0.081-0.348l-0.095-0.189v-0.095l-0.094-0.281l0.094-0.081  l0.282-0.092l0.175-0.189h0.095h0.081l0.106-0.092h0.081l0.094-0.083l0.189-0.106l0.173-0.083l0.108-0.092l0.081-0.095h0.095  l0.092-0.081h0.083h0.106l0.081-0.106l0.187-0.081l0.083-0.095h0.106h0.175l0.362-0.092l0.189-0.097h0.095h0.092h0.189h0.268h0.457  h0.189h0.187h0.175h0.095h0.081h0.187h0.094h0.095l0.187,0.097l0.459,0.092l0.079,0.095l0.646,0.187h0.095h0.095l0.268,0.081h0.108  l0.081,0.095l0.189,0.092h0.078l0.189,0.083h0.189h0.092h0.095l0.081,0.106l0.282,0.083l0.175,0.092h0.106h0.081v0.092l0.741,0.189  h0.092h0.189h0.081h0.094h0.092h0.081h0.108h0.081l0.914-0.374h0.108l0.348-0.914v-0.097V25.72v-0.083v-0.189v-0.266v-0.108v-0.175  l-0.173-0.646l-0.097-0.173l-0.079-0.108l-0.189-0.173v-0.095l-0.092-0.189l-0.097-0.079v-0.189l-0.092-0.189v-0.081l-0.175-0.282  l-0.106-0.284l-0.175-0.17l-0.095-0.097l-0.081-0.081l-0.108-0.108v-0.081l-0.081-0.187l-0.092-0.189l-0.175-0.189l-0.108-0.079  l-0.173-0.187l-0.095-0.081l-0.095-0.189l-0.175-0.282l-0.106-0.097v-0.079l-0.175-0.281l-0.175-0.175l-0.187-0.281l-0.189-0.365  l-0.187-0.376l-0.081-0.189l-0.095-0.173l-0.092-0.175l-0.097-0.187l-0.173-0.284l-0.108-0.175v-0.185l-0.078-0.097v-0.175  l-0.097-0.281l-0.092-0.282v-0.078V16.46l-0.081-0.187v-0.177v-0.104l-0.108-0.27l-0.079-0.268l-0.097-0.378v-0.175V14.62v-0.268  v-0.268v-0.111v-0.268v-0.27V13.06V12.7v-0.284v-0.081v-0.095l0.097-0.095v-0.092l0.079-0.284l0.108-0.268v-0.187l0.081-0.175  l0.092-0.189l0.097-0.268l0.078-0.189l0.108-0.175v-0.106l0.081-0.083l0.092-0.092V9.946l0.097-0.083h0.092h0.095h0.081h0.376h0.187  l0.175,0.083h0.095l0.187,0.092l0.175,0.092h0.282l0.081,0.083l0.189,0.106l0.094,0.081l0.092,0.095l0.189,0.094l0.175,0.095  l0.175,0.175h0.106l0.081,0.092l0.187,0.189l1.197-0.097l0.175,0.097l0.108,0.092l0.079,0.083l0.095,0.106l0.094,0.081h0.081  l0.106,0.095l0.083,0.173l0.092,0.108l0.095,0.079l0.081,0.097l0.106,0.092v0.095l0.081,0.095l0.094,0.187l0.095,0.178v0.092  l0.095,0.189l0.092,0.078v0.095l0.081,0.189l0.189,0.173l0.094,0.189l0.092,0.189l0.081,0.078l0.108,0.111l0.27,0.268l0.092,0.079  v0.108v0.081v0.092l0.175,0.189l0.106,0.282l0.083,0.083l0.092,0.095h0.095v0.094l0.081,0.079l0.108,0.189l0.173,0.092v0.097v0.092  l0.097,0.092l0.078,0.083v0.094v0.095l0.108,0.189v0.078l0.081,0.187l0.092,0.095l0.097,0.175l0.187,0.106v0.083l0.081,0.092v0.097  v0.092v0.092v0.081l0.189,0.189l0.092,0.095v0.095l0.094,0.081v0.106l0.081,0.083h0.108l0.081,0.092v0.092l0.187,0.081h0.081  l0.189,0.108l0.187,0.081h0.095l0.175,0.095h0.106l0.457,0.094h0.175h0.187h0.095h0.081h0.108h0.175h0.092h0.189h0.175h0.092  l0.457-0.094l0.189-0.095l0.081-0.081h0.108l0.173-0.108l0.094-0.081l0.189-0.092l0.078-0.092l0.095-0.083h0.095l0.189-0.106h0.079  l0.284-0.27l0.362-0.27h0.094l0.095-0.092l0.081-0.189h0.106l0.175-0.281l0.095-0.081l0.092-0.094l0.095-0.095h0.08l0.19-0.187  l0.092-0.078l0.094-0.097h0.082l0.105-0.092l0.176-0.095l0.094-0.094l0.082-0.083l0.105-0.092l0.176-0.092l0.189-0.189l0.094-0.081  l0.08-0.108l0.107-0.079h0.082l0.092-0.094h0.096l0.27-0.178l0.188-0.185l0.094-0.189l0.096-0.097V14.62l0.08-0.081h0.105  l0.176-0.187l0.176-0.095l0.105-0.094h0.08l0.189-0.189l0.188-0.175l0.176-0.185l0.186-0.178l0.285-0.187l0.08-0.095h0.092  l0.176-0.173l0.281-0.189l0.096-0.092l0.188-0.178l0.189-0.281l0.174-0.095l0.361-0.268l0.096-0.108h0.094l0.365-0.348l0.281-0.281  l0.268-0.189l0.094-0.092h0.096l0.268-0.27l0.27-0.189l0.105-0.081h0.082l0.281-0.282l0.283-0.175l0.348-0.187l0.109-0.094h0.08  l0.188-0.189l0.189-0.094l0.08-0.081h0.105l0.457-0.281l0.27-0.175l0.271-0.187l0.281-0.095l0.361-0.175l0.096-0.106h0.094h0.08  l0.107-0.079l0.455-0.189l0.189-0.095h0.082h0.094h0.174l0.281-0.094l0.363-0.083h0.094h0.188l0.176-0.106l0.377,2.298h0.08  l-0.08,0.281l-0.096,0.083l-0.094,0.282l-0.08,0.457v0.092v0.097v0.092l-0.107,0.27v0.095v0.173v0.108l-0.08,0.175l-0.096,0.282  l-0.094,0.175l-0.094,0.471v0.078l-0.094,0.189v0.187l-0.08,0.081l-0.107,0.281v0.097l-0.082,0.268l-0.094,0.189l-0.092,0.079  l-0.082,0.108l-0.107,0.173l-0.082,0.178l-0.092,0.187l-0.094,0.189l-0.082,0.268v0.108l-0.281,0.351l-0.189,0.187v0.094  l-0.094,0.187l-0.08,0.097l-0.107,0.265l-0.08,0.095l-0.094,0.094l-0.096,0.187l-0.08,0.083v0.092l-0.107,0.097l-0.082,0.185  l-0.188,0.27l-0.094,0.189v0.081l-0.176,0.189l-0.105,0.266l-0.082,0.108L61.1,18.839v0.095l-0.092,0.189l-0.084,0.092l-0.105,0.175  l-0.082,0.282l-0.094,0.27v0.095l-0.176,0.175l-0.105,0.185v0.097v0.092l-0.08,0.189v0.081l-0.096,0.284v0.092v0.079v0.111v0.078  v0.095v0.095v0.083v0.185v0.286v0.092v0.268v0.094l-0.094,0.362v0.189v0.268v0.094v0.189v0.173l0.094,0.378v0.185v0.177l0.096,0.362  v0.108v0.173l0.08,0.553l0.105,0.092l0.082,0.268l0.094,0.189v0.092v0.083l0.281,0.457l0.084,0.106l0.092,0.081v0.095l0.094,0.095  l0.457,0.376l0.096,0.078l0.092,0.097l0.189,0.092h0.176l0.094,0.081h0.08l0.107,0.108h0.08h0.094l0.189,0.081l0.174,0.095  l0.189,0.095h0.094h0.174h0.281h0.176h0.188h0.188H64.5h0.188h0.174h0.285h0.172h0.176l0.107-0.095l0.363-0.095l0.551-0.081  l0.188-0.108l0.27-0.081l0.092-0.092l0.096-0.097l0.363-0.078l0.094-0.106l0.188-0.083h0.082h0.094l0.174-0.095l0.189-0.092h0.094  l0.188-0.095h0.174h0.107l0.27-0.095l0.188-0.081l0.174-0.106h0.096l0.375-0.083l0.268-0.092l0.271-0.092h0.27h0.105h0.176  l0.281-0.083l0.365-0.106h0.092l0.363-0.083h0.174h0.377h0.188l0.268-0.092l0.377-0.095h0.08l0.281-0.094l0.285-0.092H74.4  l0.365-0.081h0.189h0.189h0.359l0.363,0.081h0.094h0.096h0.078l0.285,0.092l0.092,0.094v0.095l0.094,0.364v0.092v0.092v0.083  l-0.094,0.282v0.281v0.083v0.106v0.078v0.097v0.173v0.108l-0.092,0.27v0.092l-0.096,0.173l-0.08,0.189l-0.109,0.189v0.081  l-0.078,0.108l-0.096,0.175l-0.094,0.282l-0.08,0.173l-0.107,0.095l-0.08,0.092l-0.188,0.284v0.081l-0.096,0.097l-0.094,0.17  l-0.078,0.111l-0.189,0.173l-0.27,0.282v0.081l-0.109,0.097l-0.078,0.092l-0.189,0.092l-0.08,0.097l-0.109,0.079l-0.078,0.106  l-0.189,0.178l-0.189,0.173v0.108l-0.186,0.081l-0.082,0.092l-0.189,0.189l-0.08,0.175l-0.375,0.281l-0.094,0.095l-0.094,0.081  l-0.189,0.189l-0.08,0.092h-0.094l-0.174,0.092l-0.109,0.083l-0.268,0.189l-0.08,0.095l-0.107,0.095l-0.174,0.092l-0.189,0.175  h-0.096l-0.08,0.106h-0.105l-0.176,0.081l-0.094,0.095h-0.082h-0.105L69.9,35.261h-0.08l-0.188,0.187l-0.189,0.095l-0.08,0.092  l-0.107,0.081l-0.08,0.095h-0.094h-0.096l-0.08,0.092h-0.107l-0.174,0.095l-0.096,0.094h-0.186l-0.457,0.365h-0.082l-0.107,0.092  h-0.08l-0.094,0.189l-0.174,0.175L67.16,37.1l-0.188,0.173l-0.094,0.111l-0.096,0.079l-0.08,0.189v0.081l-0.109,0.108l-0.268,0.173  v0.094l-0.08,0.095l-0.109,0.095v0.078l-0.078,0.189v0.189v0.081l-0.094,0.281v0.095l-0.096,0.078l-0.094,0.646v0.108v0.081  l0.094,0.644l0.096,0.27v0.189v0.092l0.094,0.281l0.078,0.081v0.094l0.109,0.095l0.08,0.081l0.096,0.108l0.094,0.081l0.078,0.092  l0.109,0.189h0.08l0.096,0.092l0.186,0.083l0.096,0.095h0.08l0.109,0.092h0.174l0.174,0.095l0.375,0.094h0.082h0.107h0.082  l0.094,0.081h0.281h0.08h0.107h0.08h0.096l0.645,0.106h0.094h0.08l0.283,0.079h0.176h0.188h0.186h0.189h0.08l0.285,0.097h0.361  h0.188l0.27,0.092l0.268,0.083h0.189h0.094l0.281,0.106l0.268,0.083l0.189,0.092l0.363,0.095l0.094,0.095h0.092l0.365,0.092  l0.268,0.189h0.189l0.457,0.268h0.094L75.6,44.72h0.08v0.083l0.188,0.185h0.094l0.096,0.097l0.078,0.092l0.109,0.081l0.08,0.092  v0.094l0.096,0.189V45.716z"/><polygon points="56.143,42.274 56.061,42.274 55.873,42.099 55.496,42.004 55.32,41.91 55.229,41.642 54.396,42.004 54.045,42.837   54.396,43.658 55.229,44.021 55.32,44.021 55.416,44.021 55.496,44.021 55.873,43.94 56.061,43.75 56.143,43.75 56.25,43.658   56.424,43.013 56.25,42.38 "/><polygon points="41.683,42.353 41.574,42.353 41.574,42.26 41.401,42.164 41.226,41.979 41.039,41.979 40.85,41.898 40.769,41.709   39.937,42.071 39.56,42.893 39.937,43.728 40.204,43.82 40.298,43.912 40.488,43.993 40.769,44.102 40.944,44.102 41.039,43.993   41.226,43.993 41.401,43.82 41.574,43.728 41.574,43.631 41.683,43.631 41.763,43.174 41.858,42.999 41.763,42.812 "/><polygon points="42.342,31.847 41.98,32.037 41.886,32.037 41.523,32.226 41.413,32.396 41.334,32.572 41.145,33.042 41.334,33.499   41.413,33.674 41.523,33.863 41.886,34.048 41.98,34.048 42.342,34.237 43.161,33.863 43.537,33.042 43.161,32.226 "/><polygon points="48.347,27.921 48.347,27.843 48.269,27.653 48.16,27.372 48.08,27.372 47.985,27.277 47.166,27.104 46.52,27.277   46.425,27.372 46.331,27.372 46.239,27.559 46.063,27.843 46.063,27.921 46.063,28.191 46.063,28.299 46.425,29.116 46.709,29.213   47.245,29.402 48.08,29.024 48.442,28.191 48.347,28.018 "/><polygon points="60.643,32.076 60.549,31.981 60.549,31.898 60.467,31.898 60.281,31.792 59.824,31.713 59.715,31.792   59.539,31.898 59.447,31.898 59.447,31.981 59.367,32.076 59.258,32.438 59.178,32.627 59.178,32.719 59.178,32.812 59.258,32.895   59.258,33.084 59.258,33.176 59.367,33.352 59.367,33.46 59.447,33.46 59.539,33.541 59.996,33.728 60.467,33.541 60.549,33.46   60.643,33.46 60.643,33.352 60.736,33.176 60.736,33.084 60.736,32.895 60.818,32.812 60.818,32.719 60.818,32.627 60.736,32.438   "/><text x="0" y="115" fill="#000000" font-size="5px" font-weight="bold" font-family="'Helvetica Neue', Helvetica, Arial-Unicode, Arial, Sans-serif">Created by Wilson Joseph</text><text x="0" y="120" fill="#000000" font-size="5px" font-weight="bold" font-family="'Helvetica Neue', Helvetica, Arial-Unicode, Arial, Sans-serif">from the Noun Project</text></svg>